<svg width="16" height="16" viewBox="0 0 16 16" fill="none" xmlns="http://www.w3.org/2000/svg">
<path d="M13.9942 16H2.00586C1.45432 16 0.983422 15.8047 0.593178 15.4141C0.202934 15.0234 0.0078125 14.5521 0.0078125 14V2C0.0078125 1.44792 0.202934 0.976562 0.593178 0.585938C0.983422 0.195312 1.45432 0 2.00586 0H13.9942C14.5457 0 15.0166 0.195312 15.4068 0.585938C15.7971 0.976562 15.9922 1.44792 15.9922 2V14C15.9922 14.5521 15.7971 15.0234 15.4068 15.4141C15.0166 15.8047 14.5457 16 13.9942 16V16ZM12.6985 4C12.6361 4.03125 12.5424 4.09115 12.4176 4.17969C12.2927 4.26823 12.1912 4.33594 12.1132 4.38281C12.0351 4.42969 11.9389 4.47917 11.8244 4.53125C11.7099 4.58333 11.6007 4.61979 11.4966 4.64062C11.1116 4.21354 10.6381 4 10.0761 4C8.85854 4 8.24976 4.51042 8.24976 5.53125V6.46875C6.57432 6.375 5.28911 5.75521 4.39415 4.60938C4.13399 4.88021 4.00391 5.17708 4.00391 5.5C4.00391 6.1875 4.25887 6.70833 4.76879 7.0625C4.69594 7.0625 4.60489 7.06771 4.49562 7.07812C4.38635 7.08854 4.29789 7.08854 4.23025 7.07812C4.16261 7.06771 4.08716 7.04167 4.00391 7C4.00391 7.47917 4.13139 7.8776 4.38635 8.19531C4.64131 8.51302 4.99253 8.71875 5.44001 8.8125C5.33594 8.9375 5.19025 9 5.00293 9C4.83643 9 4.69074 8.95312 4.56586 8.85938C4.56586 9.26562 4.76098 9.58073 5.15123 9.80469C5.54147 10.0286 5.98115 10.1458 6.47025 10.1562C6.28293 10.4375 6.00976 10.6484 5.65074 10.7891C5.29171 10.9297 4.90928 11 4.50342 11C4.35773 11 4.15741 10.9635 3.90245 10.8906C3.64749 10.8177 3.5148 10.7812 3.5044 10.7812C3.6709 11.1146 4.01171 11.401 4.52684 11.6406C5.04196 11.8802 5.69497 12 6.48586 12C7.1831 12 7.8335 11.8776 8.43708 11.6328C9.04066 11.388 9.55578 11.0625 9.98245 10.6562C10.4091 10.25 10.7759 9.78646 11.0829 9.26562C11.3899 8.74479 11.6189 8.20573 11.7698 7.64844C11.9207 7.09115 11.9961 6.54167 11.9961 6C11.9961 5.97917 12.0585 5.9349 12.1834 5.86719C12.3083 5.79948 12.454 5.71094 12.6205 5.60156C12.787 5.49219 12.9119 5.36979 12.9951 5.23438C12.4332 5.23438 12.0585 5.24479 11.8712 5.26562C12.2355 5.04688 12.5112 4.625 12.6985 4Z" fill="white"/>
</svg>
